<mxfile host="app.diagrams.net" agent="Mozilla/5.0 (Windows NT 10.0; Win64; x64) AppleWebKit/537.36 (KHTML, like Gecko) Chrome/130.0.0.0 Safari/537.36" version="25.0.3">
  <diagram name="Trang-1" id="FW-zUzVC0kTINMt05ZOg">
    <mxGraphModel dx="2504" dy="885" grid="1" gridSize="10" guides="1" tooltips="1" connect="1" arrows="1" fold="1" page="1" pageScale="1" pageWidth="827" pageHeight="1169" math="0" shadow="0">
      <root>
        <mxCell id="0" />
        <mxCell id="1" parent="0" />
        <mxCell id="c4i69WQvhLZ-mKNHA5L--1" value="Người môi giới" style="shape=umlActor;verticalLabelPosition=bottom;verticalAlign=top;html=1;outlineConnect=0;" parent="1" vertex="1">
          <mxGeometry y="520" width="30" height="60" as="geometry" />
        </mxCell>
        <mxCell id="c4i69WQvhLZ-mKNHA5L--3" value="" style="rounded=0;whiteSpace=wrap;html=1;" parent="1" vertex="1">
          <mxGeometry x="90" y="355" width="1010" height="625" as="geometry" />
        </mxCell>
        <mxCell id="c4i69WQvhLZ-mKNHA5L--4" value="User" style="shape=umlActor;verticalLabelPosition=bottom;verticalAlign=top;html=1;outlineConnect=0;" parent="1" vertex="1">
          <mxGeometry x="255" y="980" width="30" height="60" as="geometry" />
        </mxCell>
        <mxCell id="c4i69WQvhLZ-mKNHA5L--6" value="Người mua,thuê" style="shape=umlActor;verticalLabelPosition=bottom;verticalAlign=top;html=1;outlineConnect=0;" parent="1" vertex="1">
          <mxGeometry x="1150" y="517.5" width="30" height="60" as="geometry" />
        </mxCell>
        <mxCell id="c4i69WQvhLZ-mKNHA5L--7" value="Đăng kí" style="ellipse;whiteSpace=wrap;html=1;" parent="1" vertex="1">
          <mxGeometry x="760" y="530" width="120" height="50" as="geometry" />
        </mxCell>
        <mxCell id="c4i69WQvhLZ-mKNHA5L--8" value="Đăng nhập" style="ellipse;whiteSpace=wrap;html=1;" parent="1" vertex="1">
          <mxGeometry x="210" y="860" width="120" height="40" as="geometry" />
        </mxCell>
        <mxCell id="c4i69WQvhLZ-mKNHA5L--10" value="Đăng xuất" style="ellipse;whiteSpace=wrap;html=1;" parent="1" vertex="1">
          <mxGeometry x="90" y="760" width="105" height="50" as="geometry" />
        </mxCell>
        <mxCell id="c4i69WQvhLZ-mKNHA5L--11" value="Đổi mật khẩu" style="ellipse;whiteSpace=wrap;html=1;" parent="1" vertex="1">
          <mxGeometry x="195" y="730" width="120" height="50" as="geometry" />
        </mxCell>
        <mxCell id="c4i69WQvhLZ-mKNHA5L--13" value="" style="endArrow=none;html=1;rounded=0;" parent="1" source="c4i69WQvhLZ-mKNHA5L--4" target="c4i69WQvhLZ-mKNHA5L--8" edge="1">
          <mxGeometry width="50" height="50" relative="1" as="geometry">
            <mxPoint x="560" y="940" as="sourcePoint" />
            <mxPoint x="610" y="890" as="targetPoint" />
          </mxGeometry>
        </mxCell>
        <mxCell id="c4i69WQvhLZ-mKNHA5L--14" value="extend" style="html=1;verticalAlign=bottom;endArrow=open;dashed=1;endSize=8;curved=0;rounded=0;" parent="1" source="c4i69WQvhLZ-mKNHA5L--10" target="c4i69WQvhLZ-mKNHA5L--8" edge="1">
          <mxGeometry relative="1" as="geometry">
            <mxPoint x="250" y="840" as="sourcePoint" />
            <mxPoint x="170" y="840" as="targetPoint" />
          </mxGeometry>
        </mxCell>
        <mxCell id="c4i69WQvhLZ-mKNHA5L--17" value="extend" style="html=1;verticalAlign=bottom;endArrow=open;dashed=1;endSize=8;curved=0;rounded=0;" parent="1" source="c4i69WQvhLZ-mKNHA5L--11" target="c4i69WQvhLZ-mKNHA5L--8" edge="1">
          <mxGeometry relative="1" as="geometry">
            <mxPoint x="340" y="830" as="sourcePoint" />
            <mxPoint x="280" y="870" as="targetPoint" />
          </mxGeometry>
        </mxCell>
        <mxCell id="c4i69WQvhLZ-mKNHA5L--21" value="" style="html=1;verticalAlign=bottom;endArrow=block;curved=0;rounded=0;" parent="1" source="c4i69WQvhLZ-mKNHA5L--1" edge="1">
          <mxGeometry width="80" relative="1" as="geometry">
            <mxPoint x="65" y="590" as="sourcePoint" />
            <mxPoint x="265" y="1020" as="targetPoint" />
            <Array as="points">
              <mxPoint x="20" y="1020" />
            </Array>
          </mxGeometry>
        </mxCell>
        <mxCell id="c4i69WQvhLZ-mKNHA5L--25" value="Admin" style="shape=umlActor;verticalLabelPosition=bottom;verticalAlign=top;html=1;outlineConnect=0;" parent="1" vertex="1">
          <mxGeometry x="670" y="980" width="30" height="60" as="geometry" />
        </mxCell>
        <mxCell id="c4i69WQvhLZ-mKNHA5L--27" value="Duyệt bài đăng" style="ellipse;whiteSpace=wrap;html=1;" parent="1" vertex="1">
          <mxGeometry x="590" y="667.5" width="180" height="65" as="geometry" />
        </mxCell>
        <mxCell id="c4i69WQvhLZ-mKNHA5L--28" value="Đăng tin bán/thuê" style="ellipse;whiteSpace=wrap;html=1;" parent="1" vertex="1">
          <mxGeometry x="192.5" y="390" width="155" height="60" as="geometry" />
        </mxCell>
        <mxCell id="c4i69WQvhLZ-mKNHA5L--29" value="Cập nhật thông tin bất động sản" style="ellipse;whiteSpace=wrap;html=1;" parent="1" vertex="1">
          <mxGeometry x="414" y="510" width="166" height="67.5" as="geometry" />
        </mxCell>
        <mxCell id="c4i69WQvhLZ-mKNHA5L--31" value="Xem thông tin bất động sản" style="ellipse;whiteSpace=wrap;html=1;" parent="1" vertex="1">
          <mxGeometry x="750" y="397.5" width="150" height="45" as="geometry" />
        </mxCell>
        <mxCell id="c4i69WQvhLZ-mKNHA5L--51" style="edgeStyle=orthogonalEdgeStyle;rounded=0;orthogonalLoop=1;jettySize=auto;html=1;exitX=0.5;exitY=1;exitDx=0;exitDy=0;" parent="1" source="c4i69WQvhLZ-mKNHA5L--29" target="c4i69WQvhLZ-mKNHA5L--29" edge="1">
          <mxGeometry relative="1" as="geometry" />
        </mxCell>
        <mxCell id="c4i69WQvhLZ-mKNHA5L--58" value="" style="endArrow=none;html=1;rounded=0;" parent="1" source="c4i69WQvhLZ-mKNHA5L--6" target="c4i69WQvhLZ-mKNHA5L--31" edge="1">
          <mxGeometry width="50" height="50" relative="1" as="geometry">
            <mxPoint x="615" y="642.5" as="sourcePoint" />
            <mxPoint x="890" y="478.5" as="targetPoint" />
          </mxGeometry>
        </mxCell>
        <mxCell id="c4i69WQvhLZ-mKNHA5L--59" style="edgeStyle=orthogonalEdgeStyle;rounded=0;orthogonalLoop=1;jettySize=auto;html=1;exitX=0.5;exitY=1;exitDx=0;exitDy=0;" parent="1" edge="1">
          <mxGeometry relative="1" as="geometry">
            <mxPoint x="635" y="607.5" as="sourcePoint" />
            <mxPoint x="635" y="607.5" as="targetPoint" />
          </mxGeometry>
        </mxCell>
        <mxCell id="tS0gob0ndaM3J-_v52E2-4" value="" style="endArrow=none;html=1;rounded=0;" parent="1" source="c4i69WQvhLZ-mKNHA5L--1" target="c4i69WQvhLZ-mKNHA5L--28" edge="1">
          <mxGeometry width="50" height="50" relative="1" as="geometry">
            <mxPoint x="40" y="590" as="sourcePoint" />
            <mxPoint x="356" y="555" as="targetPoint" />
          </mxGeometry>
        </mxCell>
        <mxCell id="tS0gob0ndaM3J-_v52E2-6" value="Xem danh sách bài đăng" style="ellipse;whiteSpace=wrap;html=1;rotation=0;" parent="1" vertex="1">
          <mxGeometry x="595" y="860" width="180" height="65" as="geometry" />
        </mxCell>
        <mxCell id="tS0gob0ndaM3J-_v52E2-7" value="" style="endArrow=none;html=1;rounded=0;" parent="1" source="c4i69WQvhLZ-mKNHA5L--25" target="tS0gob0ndaM3J-_v52E2-6" edge="1">
          <mxGeometry width="50" height="50" relative="1" as="geometry">
            <mxPoint x="1180" y="468" as="sourcePoint" />
            <mxPoint x="932" y="278" as="targetPoint" />
          </mxGeometry>
        </mxCell>
        <mxCell id="tS0gob0ndaM3J-_v52E2-10" value="Mua gói hội viên" style="ellipse;whiteSpace=wrap;html=1;" parent="1" vertex="1">
          <mxGeometry x="187" y="468.75" width="160" height="60" as="geometry" />
        </mxCell>
        <mxCell id="tS0gob0ndaM3J-_v52E2-11" value="" style="endArrow=none;html=1;rounded=0;" parent="1" source="c4i69WQvhLZ-mKNHA5L--1" target="tS0gob0ndaM3J-_v52E2-10" edge="1">
          <mxGeometry width="50" height="50" relative="1" as="geometry">
            <mxPoint x="40" y="560" as="sourcePoint" />
            <mxPoint x="204" y="565" as="targetPoint" />
          </mxGeometry>
        </mxCell>
        <mxCell id="tS0gob0ndaM3J-_v52E2-13" value="" style="html=1;verticalAlign=bottom;endArrow=block;curved=0;rounded=0;" parent="1" source="c4i69WQvhLZ-mKNHA5L--25" target="c4i69WQvhLZ-mKNHA5L--4" edge="1">
          <mxGeometry width="80" relative="1" as="geometry">
            <mxPoint x="26" y="590" as="sourcePoint" />
            <mxPoint x="275" y="1030" as="targetPoint" />
            <Array as="points" />
          </mxGeometry>
        </mxCell>
        <mxCell id="yN2Cevx9FcK47TUXefm0-1" value="Tìm kiếm" style="ellipse;whiteSpace=wrap;html=1;" parent="1" vertex="1">
          <mxGeometry x="750" y="476.25" width="150" height="45" as="geometry" />
        </mxCell>
        <mxCell id="yN2Cevx9FcK47TUXefm0-2" value="" style="endArrow=none;html=1;rounded=0;" parent="1" source="c4i69WQvhLZ-mKNHA5L--6" target="yN2Cevx9FcK47TUXefm0-1" edge="1">
          <mxGeometry width="50" height="50" relative="1" as="geometry">
            <mxPoint x="1160" y="557" as="sourcePoint" />
            <mxPoint x="930" y="554" as="targetPoint" />
          </mxGeometry>
        </mxCell>
        <mxCell id="yN2Cevx9FcK47TUXefm0-4" value="" style="endArrow=none;html=1;rounded=0;" parent="1" source="c4i69WQvhLZ-mKNHA5L--6" target="c4i69WQvhLZ-mKNHA5L--7" edge="1">
          <mxGeometry width="50" height="50" relative="1" as="geometry">
            <mxPoint x="290" y="1000" as="sourcePoint" />
            <mxPoint x="290" y="920" as="targetPoint" />
          </mxGeometry>
        </mxCell>
        <mxCell id="Ccp2FITqLAPcJYa5cveT-4" value="" style="endArrow=classic;html=1;rounded=0;" parent="1" source="c4i69WQvhLZ-mKNHA5L--1" target="c4i69WQvhLZ-mKNHA5L--6" edge="1">
          <mxGeometry width="50" height="50" relative="1" as="geometry">
            <mxPoint x="460" y="740" as="sourcePoint" />
            <mxPoint x="510" y="690" as="targetPoint" />
            <Array as="points">
              <mxPoint x="15" y="300" />
              <mxPoint x="1165" y="300" />
            </Array>
          </mxGeometry>
        </mxCell>
        <mxCell id="Ccp2FITqLAPcJYa5cveT-5" value="extend" style="html=1;verticalAlign=bottom;endArrow=open;dashed=1;endSize=8;curved=0;rounded=0;" parent="1" source="c4i69WQvhLZ-mKNHA5L--27" target="tS0gob0ndaM3J-_v52E2-6" edge="1">
          <mxGeometry relative="1" as="geometry">
            <mxPoint x="214" y="818" as="sourcePoint" />
            <mxPoint x="262" y="871" as="targetPoint" />
          </mxGeometry>
        </mxCell>
        <mxCell id="Ccp2FITqLAPcJYa5cveT-6" value="Xem lịch sử bài đăng" style="ellipse;whiteSpace=wrap;html=1;" parent="1" vertex="1">
          <mxGeometry x="181.5" y="540" width="166" height="67.5" as="geometry" />
        </mxCell>
        <mxCell id="Ccp2FITqLAPcJYa5cveT-7" value="" style="endArrow=none;html=1;rounded=0;" parent="1" source="c4i69WQvhLZ-mKNHA5L--1" target="Ccp2FITqLAPcJYa5cveT-6" edge="1">
          <mxGeometry width="50" height="50" relative="1" as="geometry">
            <mxPoint x="40" y="562" as="sourcePoint" />
            <mxPoint x="200" y="582" as="targetPoint" />
          </mxGeometry>
        </mxCell>
        <mxCell id="aKxHW_ghV4PInxZhm39_-1" value="Tạo yêu cầu bán/thuê" style="ellipse;whiteSpace=wrap;html=1;" parent="1" vertex="1">
          <mxGeometry x="407" y="600" width="166" height="67.5" as="geometry" />
        </mxCell>
        <mxCell id="aKxHW_ghV4PInxZhm39_-2" value="extend" style="html=1;verticalAlign=bottom;endArrow=open;dashed=1;endSize=8;curved=0;rounded=0;" parent="1" source="aKxHW_ghV4PInxZhm39_-1" target="Ccp2FITqLAPcJYa5cveT-6" edge="1">
          <mxGeometry relative="1" as="geometry">
            <mxPoint x="325" y="819" as="sourcePoint" />
            <mxPoint x="292" y="870" as="targetPoint" />
          </mxGeometry>
        </mxCell>
        <mxCell id="aKxHW_ghV4PInxZhm39_-3" value="extend" style="html=1;verticalAlign=bottom;endArrow=open;dashed=1;endSize=8;curved=0;rounded=0;" parent="1" source="c4i69WQvhLZ-mKNHA5L--29" target="Ccp2FITqLAPcJYa5cveT-6" edge="1">
          <mxGeometry relative="1" as="geometry">
            <mxPoint x="415" y="633" as="sourcePoint" />
            <mxPoint x="356" y="625" as="targetPoint" />
          </mxGeometry>
        </mxCell>
        <mxCell id="aKxHW_ghV4PInxZhm39_-4" value="Duyệt yêu cầu bán/thuê" style="ellipse;whiteSpace=wrap;html=1;" parent="1" vertex="1">
          <mxGeometry x="450" y="730" width="180" height="65" as="geometry" />
        </mxCell>
        <mxCell id="aKxHW_ghV4PInxZhm39_-5" value="extend" style="html=1;verticalAlign=bottom;endArrow=open;dashed=1;endSize=8;curved=0;rounded=0;" parent="1" source="aKxHW_ghV4PInxZhm39_-4" target="tS0gob0ndaM3J-_v52E2-6" edge="1">
          <mxGeometry relative="1" as="geometry">
            <mxPoint x="850" y="902" as="sourcePoint" />
            <mxPoint x="785" y="902" as="targetPoint" />
          </mxGeometry>
        </mxCell>
        <mxCell id="xqXGvCiBJRVue20ecXL4-1" value="Xem danh sách môi giới" style="ellipse;whiteSpace=wrap;html=1;" parent="1" vertex="1">
          <mxGeometry x="745" y="600" width="150" height="45" as="geometry" />
        </mxCell>
        <mxCell id="xqXGvCiBJRVue20ecXL4-2" value="Lưu bài đăng" style="ellipse;whiteSpace=wrap;html=1;" parent="1" vertex="1">
          <mxGeometry x="189.5" y="622.5" width="150" height="45" as="geometry" />
        </mxCell>
        <mxCell id="xqXGvCiBJRVue20ecXL4-3" value="Khuyến mãi" style="ellipse;whiteSpace=wrap;html=1;" parent="1" vertex="1">
          <mxGeometry x="925" y="925" width="150" height="45" as="geometry" />
        </mxCell>
        <mxCell id="xqXGvCiBJRVue20ecXL4-4" value="Quên mật khẩu" style="ellipse;whiteSpace=wrap;html=1;" parent="1" vertex="1">
          <mxGeometry x="320" y="820" width="120" height="50" as="geometry" />
        </mxCell>
        <mxCell id="xqXGvCiBJRVue20ecXL4-5" value="" style="endArrow=none;html=1;rounded=0;" parent="1" source="c4i69WQvhLZ-mKNHA5L--4" target="xqXGvCiBJRVue20ecXL4-4" edge="1">
          <mxGeometry width="50" height="50" relative="1" as="geometry">
            <mxPoint x="280" y="990" as="sourcePoint" />
            <mxPoint x="280" y="910" as="targetPoint" />
          </mxGeometry>
        </mxCell>
        <mxCell id="xqXGvCiBJRVue20ecXL4-6" value="Yêu cầu xóa tài khoản" style="ellipse;whiteSpace=wrap;html=1;" parent="1" vertex="1">
          <mxGeometry x="320" y="730" width="120" height="50" as="geometry" />
        </mxCell>
        <mxCell id="xqXGvCiBJRVue20ecXL4-7" value="extend" style="html=1;verticalAlign=bottom;endArrow=open;dashed=1;endSize=8;curved=0;rounded=0;" parent="1" source="xqXGvCiBJRVue20ecXL4-6" target="c4i69WQvhLZ-mKNHA5L--8" edge="1">
          <mxGeometry relative="1" as="geometry">
            <mxPoint x="293" y="810" as="sourcePoint" />
            <mxPoint x="283" y="870" as="targetPoint" />
          </mxGeometry>
        </mxCell>
        <mxCell id="xqXGvCiBJRVue20ecXL4-8" value="Lịch sử phê duyệt" style="ellipse;whiteSpace=wrap;html=1;" parent="1" vertex="1">
          <mxGeometry x="840" y="680" width="180" height="65" as="geometry" />
        </mxCell>
        <mxCell id="xqXGvCiBJRVue20ecXL4-9" value="Quản lý gói hội viên" style="ellipse;whiteSpace=wrap;html=1;" parent="1" vertex="1">
          <mxGeometry x="690" y="732.5" width="180" height="65" as="geometry" />
        </mxCell>
        <mxCell id="xqXGvCiBJRVue20ecXL4-10" value="Quản lý môi giới" style="ellipse;whiteSpace=wrap;html=1;" parent="1" vertex="1">
          <mxGeometry x="895" y="752.5" width="180" height="65" as="geometry" />
        </mxCell>
        <mxCell id="xqXGvCiBJRVue20ecXL4-11" value="Lịch sử giao dịch" style="ellipse;whiteSpace=wrap;html=1;" parent="1" vertex="1">
          <mxGeometry x="880" y="847.5" width="180" height="65" as="geometry" />
        </mxCell>
        <mxCell id="xqXGvCiBJRVue20ecXL4-12" value="" style="endArrow=none;html=1;rounded=0;" parent="1" source="c4i69WQvhLZ-mKNHA5L--1" target="xqXGvCiBJRVue20ecXL4-2" edge="1">
          <mxGeometry width="50" height="50" relative="1" as="geometry">
            <mxPoint x="40" y="561" as="sourcePoint" />
            <mxPoint x="194" y="576" as="targetPoint" />
          </mxGeometry>
        </mxCell>
        <mxCell id="xqXGvCiBJRVue20ecXL4-13" value="" style="endArrow=none;html=1;rounded=0;" parent="1" source="c4i69WQvhLZ-mKNHA5L--6" target="xqXGvCiBJRVue20ecXL4-1" edge="1">
          <mxGeometry width="50" height="50" relative="1" as="geometry">
            <mxPoint x="1160" y="558" as="sourcePoint" />
            <mxPoint x="890" y="564" as="targetPoint" />
          </mxGeometry>
        </mxCell>
        <mxCell id="xqXGvCiBJRVue20ecXL4-14" value="" style="endArrow=none;html=1;rounded=0;" parent="1" source="c4i69WQvhLZ-mKNHA5L--25" target="xqXGvCiBJRVue20ecXL4-8" edge="1">
          <mxGeometry width="50" height="50" relative="1" as="geometry">
            <mxPoint x="695" y="990" as="sourcePoint" />
            <mxPoint x="695" y="935" as="targetPoint" />
          </mxGeometry>
        </mxCell>
        <mxCell id="xqXGvCiBJRVue20ecXL4-15" value="" style="endArrow=none;html=1;rounded=0;" parent="1" source="c4i69WQvhLZ-mKNHA5L--25" target="xqXGvCiBJRVue20ecXL4-9" edge="1">
          <mxGeometry width="50" height="50" relative="1" as="geometry">
            <mxPoint x="705" y="1000" as="sourcePoint" />
            <mxPoint x="879" y="739" as="targetPoint" />
          </mxGeometry>
        </mxCell>
        <mxCell id="xqXGvCiBJRVue20ecXL4-16" value="" style="endArrow=none;html=1;rounded=0;" parent="1" source="c4i69WQvhLZ-mKNHA5L--25" target="xqXGvCiBJRVue20ecXL4-10" edge="1">
          <mxGeometry width="50" height="50" relative="1" as="geometry">
            <mxPoint x="715" y="1010" as="sourcePoint" />
            <mxPoint x="826" y="819" as="targetPoint" />
          </mxGeometry>
        </mxCell>
        <mxCell id="xqXGvCiBJRVue20ecXL4-17" value="" style="endArrow=none;html=1;rounded=0;" parent="1" source="c4i69WQvhLZ-mKNHA5L--25" target="xqXGvCiBJRVue20ecXL4-11" edge="1">
          <mxGeometry width="50" height="50" relative="1" as="geometry">
            <mxPoint x="725" y="1020" as="sourcePoint" />
            <mxPoint x="968" y="851" as="targetPoint" />
          </mxGeometry>
        </mxCell>
        <mxCell id="xqXGvCiBJRVue20ecXL4-18" value="" style="endArrow=none;html=1;rounded=0;" parent="1" source="c4i69WQvhLZ-mKNHA5L--25" target="xqXGvCiBJRVue20ecXL4-3" edge="1">
          <mxGeometry width="50" height="50" relative="1" as="geometry">
            <mxPoint x="735" y="1030" as="sourcePoint" />
            <mxPoint x="885" y="926" as="targetPoint" />
          </mxGeometry>
        </mxCell>
        <mxCell id="xqXGvCiBJRVue20ecXL4-19" value="Lịch sử trạng thái bất động sản" style="ellipse;whiteSpace=wrap;html=1;" parent="1" vertex="1">
          <mxGeometry x="530" y="397.5" width="150" height="45" as="geometry" />
        </mxCell>
        <mxCell id="xqXGvCiBJRVue20ecXL4-20" value="extend" style="html=1;verticalAlign=bottom;endArrow=open;dashed=1;endSize=8;curved=0;rounded=0;" parent="1" source="xqXGvCiBJRVue20ecXL4-19" target="c4i69WQvhLZ-mKNHA5L--31" edge="1">
          <mxGeometry relative="1" as="geometry">
            <mxPoint x="428" y="564" as="sourcePoint" />
            <mxPoint x="354" y="574" as="targetPoint" />
          </mxGeometry>
        </mxCell>
        <mxCell id="xqXGvCiBJRVue20ecXL4-21" value="Xem thông báo" style="ellipse;whiteSpace=wrap;html=1;" parent="1" vertex="1">
          <mxGeometry x="181.5" y="680" width="150" height="45" as="geometry" />
        </mxCell>
        <mxCell id="xqXGvCiBJRVue20ecXL4-22" value="" style="endArrow=none;html=1;rounded=0;" parent="1" source="c4i69WQvhLZ-mKNHA5L--1" target="xqXGvCiBJRVue20ecXL4-21" edge="1">
          <mxGeometry width="50" height="50" relative="1" as="geometry">
            <mxPoint x="40" y="566" as="sourcePoint" />
            <mxPoint x="228" y="637" as="targetPoint" />
          </mxGeometry>
        </mxCell>
      </root>
    </mxGraphModel>
  </diagram>
</mxfile>
